<svg width="100" height="100" viewBox="0 0 100 100" fill="none" xmlns="http://www.w3.org/2000/svg">
    <path id="ravenBody" d="M50 80 C30 90, 20 70, 25 50 C30 30, 45 20, 60 25 C75 30, 80 50, 75 70 C70 90, 50 80, 50 80Z" fill="#333333"/>

    <circle id="ravenHead" cx="70" cy="30" r="15" fill="#333333"/>
    
    <polygon id="ravenBeak" points="80 25, 95 30, 80 35" fill="#AAAAAA"/>

    <circle cx="75" cy="27" r="3" fill="white"/>
    <circle cx="75" cy="27" r="1.5" fill="black"/>

    <path id="ravenWing" d="M50 60 Q60 40, 85 50 T70 75 Q60 80, 50 60Z" fill="#222222" transform-origin="50% 60%"/>

    <line x1="45" y1="85" x2="40" y2="95" stroke="#663300" stroke-width="3" stroke-linecap="round"/>
    <line x1="55" y1="85" x2="60" y2="95" stroke="#663300" stroke-width="3" stroke-linecap="round"/>
</svg>